<svg xmlns="http://www.w3.org/2000/svg" viewBox="0 0 88 88"><defs><style>#ad56e7 .cls-3,#ad56e7 .cls-4,#ad56e7 .cls-5{stroke-width:2px}#ad56e7 .cls-3,#ad56e7 .cls-5{stroke-linejoin:round}#ad56e7 .cls-4,#ad56e7 .cls-5{stroke-linecap:round}#ad56e7 .cls-4{stroke-miterlimit:10}</style></defs><g id="ad56e7"><rect class="cls-1 svg-fill-white" x="1" y="13" width="86" height="62" rx="2" ry="2"/><path class="cls-2 svg-fill-primary-o" d="M80.63 13A6.89 6.89 0 0 0 77 14.22L45.22 38.65a2 2 0 0 1-2.44 0L11 14.22A6.89 6.89 0 0 0 7.37 13H3.62l1.59 1.22 37.57 28.85a2 2 0 0 0 2.44 0L82.8 14.22 84.38 13h-3.75z"/><path class="cls-3 svg-fill-none svg-stroke-black" d="M86.5 74.5L51.5 39m-50 35.5l35-35.5"/><path class="cls-4 svg-fill-none svg-stroke-black" d="M67.5 75H3a2 2 0 0 1-2-2V15a2 2 0 0 1 2-2h82a2 2 0 0 1 2 2v58a2 2 0 0 1-2 2H73.5"/><path class="cls-5 svg-fill-none svg-stroke-black" d="M3.62 13l39.16 30.07a2 2 0 0 0 2.44 0L84.38 13"/></g></svg>