<svg xmlns="http://www.w3.org/2000/svg" viewBox="0 0 88 88"><defs><style>#a1fd51 .cls-2,#a1fd51 .cls-3,#a1fd51 .cls-4{stroke-linecap:round;stroke-linejoin:round}#a1fd51 .cls-2,#a1fd51 .cls-3,#a1fd51 .cls-4,#a1fd51 .cls-6{stroke-width:2px}#a1fd51 .cls-6{stroke-miterlimit:10}</style></defs><g id="a1fd51"><rect class="cls-1 svg-fill-white" x="7" y="59" width="74" height="22" rx="4" ry="4"/><path class="cls-2 svg-fill-primary-o svg-stroke-black" d="M57 65h16m-16 5h16m-16 5h16"/><circle class="cls-3 svg-fill-primary-o svg-stroke-primary-o" cx="16" cy="70" r="1"/><circle class="cls-3 svg-fill-primary-o svg-stroke-primary-o" cx="24" cy="70" r="1"/><circle class="cls-3 svg-fill-primary-o svg-stroke-primary-o" cx="32" cy="70" r="1"/><path class="cls-4 svg-fill-none svg-stroke-black" d="M18 81h-7a4 4 0 0 1-4-4V63a4 4 0 0 1 4-4h66a4 4 0 0 1 4 4v14a4 4 0 0 1-4 4H24"/><rect class="cls-1 svg-fill-white" x="7" y="7" width="74" height="22" rx="4" ry="4"/><path class="cls-2 svg-fill-primary-o svg-stroke-black" d="M57 13h16m-16 5h16m-16 5h16"/><circle class="cls-3 svg-fill-primary-o svg-stroke-primary-o" cx="16" cy="18" r="1"/><circle class="cls-3 svg-fill-primary-o svg-stroke-primary-o" cx="24" cy="18" r="1"/><circle class="cls-3 svg-fill-primary-o svg-stroke-primary-o" cx="32" cy="18" r="1"/><path class="cls-4 svg-fill-none svg-stroke-black" d="M70 29h7a4 4 0 0 0 4-4V11a4 4 0 0 0-4-4H11a4 4 0 0 0-4 4v14a4 4 0 0 0 4 4h53"/><rect class="cls-5 svg-fill-primary-o" x="7" y="33" width="74" height="22" rx="2" ry="2"/><path class="cls-2 svg-fill-primary-o svg-stroke-black" d="M57 39h16m-16 5h16m-16 5h16"/><circle class="cls-6 svg-fill-white svg-stroke-white" cx="16" cy="44" r="1"/><circle class="cls-6 svg-fill-white svg-stroke-white" cx="24" cy="44" r="1"/><circle class="cls-6 svg-fill-white svg-stroke-white" cx="32" cy="44" r="1"/><rect class="cls-4 svg-fill-none svg-stroke-black" x="7" y="33" width="74" height="22" rx="4" ry="4"/></g></svg>