<svg width="48" height="48" xmlns="http://www.w3.org/2000/svg" viewBox="0 0 100 100" preserveAspectRatio="xMidYMid" class="uil-default"><path fill="none" class="bk" d="M0 0h100v100H0z"/><rect x="46.5" y="40" width="7" height="20" rx="5" ry="5" fill="gray" transform="translate(0 -30)"><animate attributeName="opacity" from="1" to="0" dur="0.5s" begin="0s" repeatCount="indefinite"/></rect><rect x="46.5" y="40" width="7" height="20" rx="5" ry="5" fill="gray" transform="rotate(30 105.98 65)"><animate attributeName="opacity" from="1" to="0" dur="0.5s" begin="0.041666666666666664s" repeatCount="indefinite"/></rect><rect x="46.5" y="40" width="7" height="20" rx="5" ry="5" fill="gray" transform="rotate(60 75.98 65)"><animate attributeName="opacity" from="1" to="0" dur="0.5s" begin="0.08333333333333333s" repeatCount="indefinite"/></rect><rect x="46.5" y="40" width="7" height="20" rx="5" ry="5" fill="gray" transform="rotate(90 65 65)"><animate attributeName="opacity" from="1" to="0" dur="0.5s" begin="0.125s" repeatCount="indefinite"/></rect><rect x="46.5" y="40" width="7" height="20" rx="5" ry="5" fill="gray" transform="rotate(120 58.66 65)"><animate attributeName="opacity" from="1" to="0" dur="0.5s" begin="0.16666666666666666s" repeatCount="indefinite"/></rect><rect x="46.5" y="40" width="7" height="20" rx="5" ry="5" fill="gray" transform="rotate(150 54.02 65)"><animate attributeName="opacity" from="1" to="0" dur="0.5s" begin="0.20833333333333334s" repeatCount="indefinite"/></rect><rect x="46.5" y="40" width="7" height="20" rx="5" ry="5" fill="gray" transform="rotate(180 50 65)"><animate attributeName="opacity" from="1" to="0" dur="0.5s" begin="0.25s" repeatCount="indefinite"/></rect><rect x="46.5" y="40" width="7" height="20" rx="5" ry="5" fill="gray" transform="rotate(-150 45.98 65)"><animate attributeName="opacity" from="1" to="0" dur="0.5s" begin="0.2916666666666667s" repeatCount="indefinite"/></rect><rect x="46.5" y="40" width="7" height="20" rx="5" ry="5" fill="gray" transform="rotate(-120 41.34 65)"><animate attributeName="opacity" from="1" to="0" dur="0.5s" begin="0.3333333333333333s" repeatCount="indefinite"/></rect><rect x="46.5" y="40" width="7" height="20" rx="5" ry="5" fill="gray" transform="rotate(-90 35 65)"><animate attributeName="opacity" from="1" to="0" dur="0.5s" begin="0.375s" repeatCount="indefinite"/></rect><rect x="46.5" y="40" width="7" height="20" rx="5" ry="5" fill="gray" transform="rotate(-60 24.02 65)"><animate attributeName="opacity" from="1" to="0" dur="0.5s" begin="0.4166666666666667s" repeatCount="indefinite"/></rect><rect x="46.5" y="40" width="7" height="20" rx="5" ry="5" fill="gray" transform="rotate(-30 -5.98 65)"><animate attributeName="opacity" from="1" to="0" dur="0.5s" begin="0.4583333333333333s" repeatCount="indefinite"/></rect></svg>