<svg version="1.1" xmlns="http://www.w3.org/2000/svg" xmlns:xlink="http://www.w3.org/1999/xlink" x="0px" y="0px" viewBox="0 0 254 274" style="enable-background:new 0 0 254 274;" xml:space="preserve" class="svg img-responsive">
<g id="Layer_1_1_">
	<g>
		<g>
			<g>
				<path style="fill:#CCCCCC;" d="M192.093,274H44.495c-4.692,0-8.495-3.582-8.495-8V22c0-4.418,3.803-8,8.495-8h189.01      c4.692,0,8.495,3.582,8.495,8v244c0,4.418-3.803,8-8.495,8h-18.052"></path>
			</g>
			<g>
				<path style="fill:#FFFFFF;" d="M180.093,262H32.495c-4.692,0-8.495-3.582-8.495-8V10c0-4.418,3.803-8,8.495-8h189.01      C226.197,2,230,5.582,230,10v244c0,4.418-3.803,8-8.495,8h-18.052"></path>
				<path style="fill:#111111;" d="M221.505,264h-18.052c-1.104,0-2-0.896-2-2s0.896-2,2-2h18.052c3.581,0,6.495-2.691,6.495-6V10      c0-3.309-2.914-6-6.495-6H32.495C28.914,4,26,6.691,26,10v244c0,3.309,2.914,6,6.495,6h147.598c1.104,0,2,0.896,2,2      s-0.896,2-2,2H32.495C26.708,264,22,259.514,22,254V10c0-5.514,4.708-10,10.495-10h189.01C227.292,0,232,4.486,232,10v244      C232,259.514,227.292,264,221.505,264z"></path>
			</g>
			<g>
				<circle style="fill:#FFFFFF;" cx="127" cy="244" r="6"></circle>
				<path style="fill:#111111;" d="M127,252c-4.411,0-8-3.589-8-8s3.589-8,8-8s8,3.589,8,8S131.411,252,127,252z M127,240      c-2.206,0-4,1.794-4,4s1.794,4,4,4s4-1.794,4-4S129.206,240,127,240z"></path>
			</g>
			<g>
				<path style="fill:#02C54C;" d="M39.928,224V21c0-2.209,1.791-4,4-4h166.144c2.209,0,4,1.791,4,4v203c0,1.105-0.895,2-2,2H41.928      C40.823,226,39.928,225.105,39.928,224z"></path>
				<path style="fill:#111111;" d="M212.072,228H41.928c-2.206,0-4-1.794-4-4V21c0-3.309,2.691-6,6-6h166.145c3.309,0,6,2.691,6,6      v203C216.072,226.206,214.278,228,212.072,228z M43.928,19c-1.103,0-2,0.897-2,2v203.003L212.072,224V21c0-1.103-0.897-2-2-2      H43.928z"></path>
			</g>
			<g>
				<g>
					<circle style="fill:#00A63F;" cx="204" cy="216" r="2"></circle>
				</g>
				<g>
					<circle style="fill:#00A63F;" cx="204" cy="200" r="2"></circle>
				</g>
				<g>
					<circle style="fill:#00A63F;" cx="197" cy="208" r="2"></circle>
				</g>
				<g>
					<circle style="fill:#00A63F;" cx="197" cy="192" r="2"></circle>
				</g>
				<g>
					<circle style="fill:#00A63F;" cx="190" cy="216" r="2"></circle>
				</g>
				<g>
					<circle style="fill:#00A63F;" cx="190" cy="200" r="2"></circle>
				</g>
				<g>
					<circle style="fill:#00A63F;" cx="183.055" cy="208" r="2"></circle>
				</g>
				<g>
					<circle style="fill:#00A63F;" cx="176.055" cy="216" r="2"></circle>
				</g>
			</g>
		</g>
		<g>
			<path style="fill:#F3F3F3;" d="M162.53,152H95.414c-1.104,0-2-0.896-2-2s0.896-2,2-2h67.116c1.104,0,2,0.896,2,2     S163.635,152,162.53,152z"></path>
		</g>
		<g>
			<path style="fill:#F3F3F3;" d="M192.461,174H65.483c-1.104,0-2-0.896-2-2s0.896-2,2-2h126.978c1.104,0,2,0.896,2,2     S193.565,174,192.461,174z"></path>
		</g>
		<g>
			<path style="fill:#F3F3F3;" d="M142.539,163H65.446c-1.104,0-2-0.896-2-2s0.896-2,2-2h77.093c1.104,0,2,0.896,2,2     S143.644,163,142.539,163z"></path>
		</g>
		<g>
			<path style="fill:#F3F3F3;" d="M192.423,163h-39c-1.104,0-2-0.896-2-2s0.896-2,2-2h39c1.104,0,2,0.896,2,2     S193.527,163,192.423,163z"></path>
		</g>
		<g>
			<g>
				<rect x="55" y="69" style="fill:#ECFFF3;" width="144" height="68"></rect>
			</g>
		</g>
		<g style="opacity:0.2;">
			<path style="fill:#111111;" d="M230.506,36.269c-4.147,1.132-7.76,3.556-10.381,6.815c-3.69-4.588-9.342-7.53-15.688-7.53     c-6.346,0-11.997,2.942-15.688,7.53c-3.69-4.588-9.342-7.53-15.688-7.53c-6.346,0-11.997,2.942-15.688,7.53     c-3.69-4.588-9.342-7.53-15.688-7.53c-6.346,0-11.997,2.942-15.688,7.53c-3.69-4.588-9.342-7.53-15.688-7.53     c-6.346,0-11.997,2.942-15.688,7.53c-3.69-4.588-9.342-7.53-15.688-7.53c-6.346,0-11.997,2.942-15.687,7.53     c-3.69-4.588-9.342-7.53-15.688-7.53s-11.997,2.942-15.688,7.53c-2.187-2.719-5.066-4.852-8.367-6.146v37.496     c3.301-1.293,6.18-3.427,8.367-6.146c3.69,4.588,9.342,7.53,15.688,7.53s11.997-2.942,15.688-7.53     c3.69,4.588,9.342,7.53,15.687,7.53c6.346,0,11.997-2.942,15.688-7.53c3.69,4.588,9.342,7.53,15.688,7.53     c6.346,0,11.997-2.942,15.688-7.53c3.69,4.588,9.342,7.53,15.688,7.53c6.346,0,11.997-2.942,15.688-7.53     c3.69,4.588,9.342,7.53,15.688,7.53c6.346,0,11.997-2.942,15.688-7.53c3.69,4.588,9.342,7.53,15.688,7.53     c6.346,0,11.997-2.942,15.688-7.53c2.592,3.223,6.154,5.629,10.244,6.777"></path>
		</g>
		<g>
			<g>
				<path style="fill:#FFFFFF;" d="M17.625,62L17.625,62C8.996,62,2,55.197,2,46.802c0-10.105,0-21.727,0-27.538      c0-1.815,1.513-3.28,3.378-3.28H33.25v30.815C33.25,55.194,26.254,62,17.625,62z"></path>
			</g>
			<g>
				<path style="fill:#111111;" d="M17.625,64C7.906,64,0,56.285,0,46.802V19.264c0-2.911,2.412-5.28,5.378-5.28H33.25      c1.104,0,2,0.896,2,2v30.814C35.25,56.283,27.344,64,17.625,64z M5.378,17.983c-0.76,0-1.378,0.574-1.378,1.28v27.538      C4,54.079,10.112,60,17.625,60S31.25,54.077,31.25,46.798V17.983H5.378z"></path>
			</g>
			<g>
				<path style="fill:#FF9592;" d="M236.375,62L236.375,62C245.004,62,252,55.197,252,46.802c0-10.105,0-21.727,0-27.538      c0-1.815-1.513-3.28-3.378-3.28H220.75v30.815C220.75,55.194,227.746,62,236.375,62z"></path>
			</g>
			<g>
				<path style="fill:#111111;" d="M236.375,64c-9.719,0-17.625-7.717-17.625-17.202V15.983c0-1.104,0.896-2,2-2h27.872      c2.966,0,5.378,2.369,5.378,5.28v27.538C254,56.285,246.094,64,236.375,64z M222.75,17.983v28.814      c0,7.279,6.112,13.202,13.625,13.202S250,54.079,250,46.802V19.264c0-0.706-0.618-1.28-1.378-1.28H222.75z"></path>
			</g>
			<g>
				<path style="fill:#FF9592;" d="M48.875,62L48.875,62c-8.629,0-15.625-6.803-15.625-15.198c0-13.678,0-30.818,0-30.818H64.5      v30.815C64.5,55.194,57.504,62,48.875,62z"></path>
			</g>
			<g>
				<path style="fill:#111111;" d="M48.875,64C39.019,64,31,56.374,31,47V16c0-1.104,0.896-2,2-2h32c1.104,0,2,0.896,2,2v31      C67,56.374,58.869,64,48.875,64z M35,18v29c0,7.168,6.225,13,13.875,13C56.531,60,63,54.047,63,47V18H35z"></path>
			</g>
			<g>
				<path style="fill:#FFFFFF;" d="M80.125,62L80.125,62C71.496,62,64.5,55.197,64.5,46.802c0-13.678,0-30.818,0-30.818h31.25      v30.815C95.75,55.194,88.754,62,80.125,62z"></path>
			</g>
			<g>
				<path style="fill:#111111;" d="M80.125,64C70.522,64,63,56.532,63,47V16c0-1.104,0.896-2,2-2h31c1.104,0,2,0.896,2,2v31      C98,56.374,89.981,64,80.125,64z M67,18v29c0,7.411,5.643,13,13.125,13C87.775,60,94,54.168,94,47V18H67z"></path>
			</g>
			<g>
				<path style="fill:#FF9592;" d="M111.375,62L111.375,62c-8.629,0-15.625-6.803-15.625-15.198c0-13.678,0-30.818,0-30.818H127      v30.815C127,55.194,120.004,62,111.375,62z"></path>
			</g>
			<g>
				<path style="fill:#111111;" d="M111.375,64C101.632,64,94,56.532,94,47V16c0-1.104,0.895-1.999,1.999-2l31-0.017H127      c0.53,0,1.039,0.211,1.414,0.585c0.375,0.376,0.586,0.885,0.586,1.415v30.814C129,56.283,121.094,64,111.375,64z M98,17.999V47      c0,7.29,5.875,13,13.375,13C118.888,60,125,54.077,125,46.798V17.984L98,17.999z"></path>
			</g>
			<g>
				<path style="fill:#FFFFFF;" d="M142.625,62L142.625,62C133.996,62,127,55.197,127,46.802c0-13.678,0-30.818,0-30.818h31.25      v30.815C158.25,55.194,151.254,62,142.625,62z"></path>
			</g>
			<g>
				<path style="fill:#111111;" d="M142.625,64C132.906,64,125,56.285,125,46.802V15.983c0-1.104,0.896-2,2-2h31.25      c1.104,0,2,0.896,2,2v30.814C160.25,56.283,152.344,64,142.625,64z M129,17.983v28.818C129,54.079,135.112,60,142.625,60      s13.625-5.923,13.625-13.202V17.983H129z"></path>
			</g>
			<g>
				<path style="fill:#FF9592;" d="M173.875,62L173.875,62c-8.629,0-15.625-6.803-15.625-15.198c0-13.678,0-30.818,0-30.818h31.25      v30.815C189.5,55.194,182.504,62,173.875,62z"></path>
			</g>
			<g>
				<path style="fill:#111111;" d="M173.875,64C164.019,64,156,56.374,156,47V16c0-1.104,0.896-2,2-2h32c1.104,0,2,0.896,2,2v31      C192,56.374,183.869,64,173.875,64z M160,18v29c0,7.168,6.225,13,13.875,13C181.531,60,188,54.047,188,47V18H160z"></path>
			</g>
			<g>
				<path style="fill:#FFFFFF;" d="M205.125,62L205.125,62c-8.629,0-15.625-6.803-15.625-15.198c0-13.678,0-30.818,0-30.818h31.25      v30.815C220.75,55.194,213.754,62,205.125,62z"></path>
			</g>
			<g>
				<path style="fill:#111111;" d="M205.125,64C195.522,64,188,56.532,188,47V16c0-1.104,0.896-2,2-2h31c1.104,0,2,0.896,2,2v31      C223,56.374,214.981,64,205.125,64z M192,18v29c0,7.411,5.643,13,13.125,13C212.775,60,219,54.168,219,47V18H192z"></path>
			</g>
		</g>
		<g>
			<path style="fill:#006C2A;" d="M149,203h-38c-2.209,0-4-1.791-4-4v-6c0-2.209,1.791-4,4-4h38c2.209,0,4,1.791,4,4v6     C153,201.209,151.209,203,149,203z"></path>
		</g>
		<g>
			<g>
				<g>
					<path style="fill:#006C2A;" d="M130.312,124.252c-0.997,0.997-2.628,0.997-3.624,0l-19.44-19.44       c-0.997-0.997-0.997-2.628,0-3.624l19.44-19.44c0.997-0.997,2.628-0.997,3.624,0l19.44,19.44c0.997,0.997,0.997,2.628,0,3.624       L130.312,124.252z"></path>
				</g>
				<g>
					<path style="fill:#006C2A;" d="M130.312,124.252c-0.997,0.997-2.628,0.997-3.624,0l-19.44-19.44       c-0.997-0.997-0.997-2.628,0-3.624l19.44-19.44c0.997-0.997,2.628-0.997,3.624,0l19.44,19.44c0.997,0.997,0.997,2.628,0,3.624       L130.312,124.252z"></path>
				</g>
			</g>
			<g>
				<g>
					<path style="fill:#ECFFF3;" d="M130.228,113.287c-0.951,0.951-2.506,0.951-3.457,0l-8.725-8.559       c-0.951-0.951-0.628-1.728,0.716-1.728h19.475c1.344,0,1.667,0.778,0.716,1.728L130.228,113.287z"></path>
				</g>
				<g>
					<path style="fill:#ECFFF3;" d="M130.228,113.287c-0.951,0.951-2.506,0.951-3.457,0l-8.725-8.559       c-0.951-0.951-0.628-1.728,0.716-1.728h19.475c1.344,0,1.667,0.778,0.716,1.728L130.228,113.287z"></path>
				</g>
			</g>
		</g>
	</g>
	<g>
		<line style="fill:#FFFFFF;" x1="24" y1="248" x2="44" y2="248"></line>
		<path style="fill:#111111;" d="M44,250H24c-1.104,0-2-0.896-2-2s0.896-2,2-2h20c1.104,0,2,0.896,2,2S45.104,250,44,250z"></path>
	</g>
	<g>
		<line style="fill:#FFFFFF;" x1="24" y1="240" x2="36" y2="240"></line>
		<path style="fill:#111111;" d="M36,242H24c-1.104,0-2-0.896-2-2s0.896-2,2-2h12c1.104,0,2,0.896,2,2S37.104,242,36,242z"></path>
	</g>
</g>
<g id="Layer_1">
</g>
</svg>
