<svg xmlns="http://www.w3.org/2000/svg" viewBox="0 0 254 274" class="svg img-responsive"><path d="M192.093 274H44.495c-4.692 0-8.495-3.582-8.495-8V22c0-4.418 3.803-8 8.495-8h189.01c4.692 0 8.495 3.582 8.495 8v244c0 4.418-3.803 8-8.495 8h-18.052" fill="#ccc"/><path d="M180.093 262H32.495c-4.692 0-8.495-3.582-8.495-8V10c0-4.418 3.803-8 8.495-8h189.01C226.197 2 230 5.582 230 10v244c0 4.418-3.803 8-8.495 8h-18.052" fill="#fff"/><path d="M221.505 264h-18.052a2 2 0 010-4h18.052c3.581 0 6.495-2.691 6.495-6V10c0-3.309-2.914-6-6.495-6H32.495C28.914 4 26 6.691 26 10v244c0 3.309 2.914 6 6.495 6h147.598a2 2 0 010 4H32.495C26.708 264 22 259.514 22 254V10c0-5.514 4.708-10 10.495-10h189.01C227.292 0 232 4.486 232 10v244c0 5.514-4.708 10-10.495 10z" fill="#111"/><circle cx="127" cy="244" r="6" fill="#fff"/><path d="M127 252c-4.411 0-8-3.589-8-8s3.589-8 8-8 8 3.589 8 8-3.589 8-8 8zm0-12c-2.206 0-4 1.794-4 4s1.794 4 4 4 4-1.794 4-4-1.794-4-4-4z" fill="#111"/><path d="M39.928 224V21a4 4 0 014-4h166.144a4 4 0 014 4v203a2 2 0 01-2 2H41.928a2 2 0 01-2-2z" fill="#02c54c"/><path d="M212.072 228H41.928c-2.206 0-4-1.794-4-4V21c0-3.309 2.691-6 6-6h166.145c3.309 0 6 2.691 6 6v203a4.006 4.006 0 01-4.001 4zM43.928 19c-1.103 0-2 .897-2 2v203.003L212.072 224V21c0-1.103-.897-2-2-2H43.928z" fill="#111"/><circle cx="204" cy="216" r="2" fill="#00a63f"/><circle cx="204" cy="200" r="2" fill="#00a63f"/><circle cx="197" cy="208" r="2" fill="#00a63f"/><circle cx="197" cy="192" r="2" fill="#00a63f"/><circle cx="190" cy="216" r="2" fill="#00a63f"/><circle cx="190" cy="200" r="2" fill="#00a63f"/><circle cx="183.055" cy="208" r="2" fill="#00a63f"/><circle cx="176.055" cy="216" r="2" fill="#00a63f"/><path d="M162.53 152H95.414a2 2 0 010-4h67.116a2 2 0 010 4zm29.931 22H65.483a2 2 0 010-4h126.978a2 2 0 010 4zm-49.922-11H65.446a2 2 0 010-4h77.093a2 2 0 010 4zm49.884 0h-39a2 2 0 010-4h39a2 2 0 010 4z" fill="#f3f3f3"/><path fill="#ecfff3" d="M55 69h144v68H55z"/><path d="M230.506 36.269a20.143 20.143 0 00-10.381 6.815c-3.69-4.588-9.342-7.53-15.688-7.53s-11.997 2.942-15.688 7.53c-3.69-4.588-9.342-7.53-15.688-7.53s-11.997 2.942-15.688 7.53c-3.69-4.588-9.342-7.53-15.688-7.53s-11.997 2.942-15.688 7.53c-3.69-4.588-9.342-7.53-15.688-7.53s-11.997 2.942-15.688 7.53c-3.69-4.588-9.342-7.53-15.688-7.53s-11.997 2.942-15.687 7.53c-3.69-4.588-9.342-7.53-15.688-7.53s-11.997 2.942-15.688 7.53a20.21 20.21 0 00-8.367-6.146v37.496a20.201 20.201 0 008.367-6.146c3.69 4.588 9.342 7.53 15.688 7.53s11.997-2.942 15.688-7.53c3.69 4.588 9.342 7.53 15.687 7.53 6.346 0 11.997-2.942 15.688-7.53 3.69 4.588 9.342 7.53 15.688 7.53s11.997-2.942 15.688-7.53c3.69 4.588 9.342 7.53 15.688 7.53s11.997-2.942 15.688-7.53c3.69 4.588 9.342 7.53 15.688 7.53s11.997-2.942 15.688-7.53c3.69 4.588 9.342 7.53 15.688 7.53s11.997-2.942 15.688-7.53a20.145 20.145 0 0010.244 6.777" fill="#111" opacity=".2"/><path d="M17.625 62C8.996 62 2 55.197 2 46.802V19.264c0-1.815 1.513-3.28 3.378-3.28H33.25v30.815C33.25 55.194 26.254 62 17.625 62z" fill="#fff"/><path d="M17.625 64C7.906 64 0 56.285 0 46.802V19.264c0-2.911 2.412-5.28 5.378-5.28H33.25a2 2 0 012 2v30.814C35.25 56.283 27.344 64 17.625 64zM5.378 17.983c-.76 0-1.378.574-1.378 1.28v27.538C4 54.079 10.112 60 17.625 60S31.25 54.077 31.25 46.798V17.983H5.378z" fill="#111"/><path d="M236.375 62C245.004 62 252 55.197 252 46.802V19.264c0-1.815-1.513-3.28-3.378-3.28H220.75v30.815c0 8.395 6.996 15.201 15.625 15.201z" fill="#ff9592"/><path d="M236.375 64c-9.719 0-17.625-7.717-17.625-17.202V15.983a2 2 0 012-2h27.872c2.966 0 5.378 2.369 5.378 5.28v27.538C254 56.285 246.094 64 236.375 64zM222.75 17.983v28.814c0 7.279 6.112 13.202 13.625 13.202S250 54.079 250 46.802V19.264c0-.706-.618-1.28-1.378-1.28H222.75z" fill="#111"/><path d="M48.875 62c-8.629 0-15.625-6.803-15.625-15.198V15.984H64.5v30.815C64.5 55.194 57.504 62 48.875 62z" fill="#ff9592"/><path d="M48.875 64C39.019 64 31 56.374 31 47V16a2 2 0 012-2h32a2 2 0 012 2v31c0 9.374-8.131 17-18.125 17zM35 18v29c0 7.168 6.225 13 13.875 13C56.531 60 63 54.047 63 47V18H35z" fill="#111"/><path d="M80.125 62C71.496 62 64.5 55.197 64.5 46.802V15.984h31.25v30.815C95.75 55.194 88.754 62 80.125 62z" fill="#fff"/><path d="M80.125 64C70.522 64 63 56.532 63 47V16a2 2 0 012-2h31a2 2 0 012 2v31c0 9.374-8.019 17-17.875 17zM67 18v29c0 7.411 5.643 13 13.125 13C87.775 60 94 54.168 94 47V18H67z" fill="#111"/><path d="M111.375 62c-8.629 0-15.625-6.803-15.625-15.198V15.984H127v30.815C127 55.194 120.004 62 111.375 62z" fill="#ff9592"/><path d="M111.375 64C101.632 64 94 56.532 94 47V16a2 2 0 011.999-2l31-.017H127c.53 0 1.039.211 1.414.585.375.376.586.885.586 1.415v30.814C129 56.283 121.094 64 111.375 64zM98 17.999V47c0 7.29 5.875 13 13.375 13C118.888 60 125 54.077 125 46.798V17.984l-27 .015z" fill="#111"/><path d="M142.625 62C133.996 62 127 55.197 127 46.802V15.984h31.25v30.815c0 8.395-6.996 15.201-15.625 15.201z" fill="#fff"/><path d="M142.625 64C132.906 64 125 56.285 125 46.802V15.983a2 2 0 012-2h31.25a2 2 0 012 2v30.814c0 9.486-7.906 17.203-17.625 17.203zM129 17.983v28.818C129 54.079 135.112 60 142.625 60s13.625-5.923 13.625-13.202V17.983H129z" fill="#111"/><path d="M173.875 62c-8.629 0-15.625-6.803-15.625-15.198V15.984h31.25v30.815c0 8.395-6.996 15.201-15.625 15.201z" fill="#ff9592"/><path d="M173.875 64C164.019 64 156 56.374 156 47V16a2 2 0 012-2h32a2 2 0 012 2v31c0 9.374-8.131 17-18.125 17zM160 18v29c0 7.168 6.225 13 13.875 13C181.531 60 188 54.047 188 47V18h-28z" fill="#111"/><path d="M205.125 62c-8.629 0-15.625-6.803-15.625-15.198V15.984h31.25v30.815c0 8.395-6.996 15.201-15.625 15.201z" fill="#fff"/><path d="M205.125 64C195.522 64 188 56.532 188 47V16a2 2 0 012-2h31a2 2 0 012 2v31c0 9.374-8.019 17-17.875 17zM192 18v29c0 7.411 5.643 13 13.125 13C212.775 60 219 54.168 219 47V18h-27z" fill="#111"/><path d="M149 203h-38a4 4 0 01-4-4v-6a4 4 0 014-4h38a4 4 0 014 4v6a4 4 0 01-4 4zm-18.688-78.748a2.57 2.57 0 01-3.624 0l-19.44-19.44a2.57 2.57 0 010-3.624l19.44-19.44a2.57 2.57 0 013.624 0l19.44 19.44a2.57 2.57 0 010 3.624l-19.44 19.44z" fill="#006c2a"/><path d="M130.312 124.252a2.57 2.57 0 01-3.624 0l-19.44-19.44a2.57 2.57 0 010-3.624l19.44-19.44a2.57 2.57 0 013.624 0l19.44 19.44a2.57 2.57 0 010 3.624l-19.44 19.44z" fill="#006c2a"/><g fill="#ecfff3"><path d="M130.228 113.287a2.451 2.451 0 01-3.457 0l-8.725-8.559c-.951-.951-.628-1.728.716-1.728h19.475c1.344 0 1.667.778.716 1.728l-8.725 8.559z"/><path d="M130.228 113.287a2.451 2.451 0 01-3.457 0l-8.725-8.559c-.951-.951-.628-1.728.716-1.728h19.475c1.344 0 1.667.778.716 1.728l-8.725 8.559z"/></g><path fill="#fff" d="M24 248h20"/><path d="M44 250H24a2 2 0 010-4h20a2 2 0 010 4z" fill="#111"/><path fill="#fff" d="M24 240h12"/><path d="M36 242H24a2 2 0 010-4h12a2 2 0 010 4z" fill="#111"/></svg>